<svg width="25" height="15" viewBox="0 0 25 15" fill="none" xmlns="http://www.w3.org/2000/svg">
<path d="M15.8393 1.60547H9.38672V13.3971H15.8393V1.60547Z" fill="#FF5F00"/>
<path d="M9.79721 7.5C9.79721 5.10417 10.9034 2.97917 12.6036 1.60417C11.354 0.604169 9.77673 0 8.05603 0C3.97963 0 0.681641 3.35417 0.681641 7.5C0.681641 11.6458 3.97963 15 8.05603 15C9.77673 15 11.354 14.3958 12.6036 13.3958C10.9034 12.0417 9.79721 9.89583 9.79721 7.5Z" fill="#EB001B"/>
<path d="M24.545 7.5C24.545 11.6458 21.247 15 17.1706 15C15.4499 15 13.8726 14.3958 12.623 13.3958C14.3437 12.0208 15.4294 9.89583 15.4294 7.5C15.4294 5.10417 14.3233 2.97917 12.623 1.60417C13.8726 0.604169 15.4499 0 17.1706 0C21.247 0 24.545 3.375 24.545 7.5Z" fill="#F79E1B"/>
</svg>
