<svg width="26" height="9" viewBox="0 0 26 9" fill="none" xmlns="http://www.w3.org/2000/svg">
<path d="M11.2258 8.4749H9.12695L10.4397 0.554688H12.5384L11.2258 8.4749Z" fill="#00579F"/>
<path d="M18.8369 0.747351C18.4229 0.587097 17.7663 0.410156 16.9544 0.410156C14.8818 0.410156 13.4222 1.4886 13.4133 3.03044C13.3961 4.16801 14.4583 4.79985 15.2527 5.17915C16.0647 5.56674 16.3407 5.81972 16.3407 6.1652C16.3325 6.6958 15.6846 6.94038 15.0803 6.94038C14.2424 6.94038 13.7934 6.81428 13.1111 6.51908L12.8347 6.39254L12.541 8.17045C13.0333 8.38928 13.9402 8.58346 14.8818 8.59197C17.084 8.59197 18.5177 7.53022 18.5347 5.88714C18.5431 4.98552 17.9822 4.29467 16.773 3.73014C16.0389 3.36775 15.5893 3.12339 15.5893 2.7526C15.5979 2.41552 15.9696 2.07026 16.7982 2.07026C17.4805 2.05335 17.9818 2.21338 18.3616 2.37352L18.5515 2.45763L18.8369 0.747351Z" fill="#00579F"/>
<path d="M21.6242 5.66905C21.797 5.21405 22.4621 3.45304 22.4621 3.45304C22.4534 3.46995 22.6346 2.98963 22.7382 2.69477L22.8849 3.37722C22.8849 3.37722 23.2824 5.27306 23.3687 5.66905C23.0407 5.66905 22.0387 5.66905 21.6242 5.66905ZM24.2149 0.554688H22.5915C22.0908 0.554688 21.7105 0.697808 21.4945 1.21183L18.377 8.47479H20.5792C20.5792 8.47479 20.9417 7.49725 21.0197 7.28671C21.2613 7.28671 23.4036 7.28671 23.7144 7.28671C23.7746 7.56478 23.9648 8.47479 23.9648 8.47479H25.9081L24.2149 0.554688Z" fill="#00579F"/>
<path d="M7.3771 0.554688L5.32167 5.95552L5.09706 4.86016C4.71706 3.59627 3.52528 2.22308 2.19531 1.54029L4.07801 8.4665H6.29745L9.59643 0.554688H7.3771Z" fill="#00579F"/>
<path d="M3.41133 0.554688H0.0345459L0 0.714718C2.63411 1.37197 4.37862 2.95626 5.09537 4.8605L4.36129 1.22045C4.24044 0.714606 3.86904 0.571374 3.41133 0.554688Z" fill="#FAA61A"/>
</svg>
