<svg width="22" height="22" viewBox="0 0 22 22" fill="none" xmlns="http://www.w3.org/2000/svg">
<path d="M11.6438 16.3035L16.57 11.3774C16.7536 11.1937 16.9699 11.1019 17.2188 11.1019C17.4677 11.1019 17.6835 11.1937 17.8663 11.3774C18.05 11.561 18.1418 11.7773 18.1418 12.0262C18.1418 12.2751 18.05 12.4909 17.8663 12.6737L11.3845 19.1555C11.2009 19.3392 10.9846 19.431 10.7357 19.431C10.4868 19.431 10.2709 19.3392 10.0881 19.1555L3.60633 12.6737C3.42268 12.4901 3.33086 12.2738 3.33086 12.0249C3.33086 11.776 3.42268 11.5601 3.60634 11.3774C3.78999 11.1937 4.00626 11.1019 4.25516 11.1019C4.50407 11.1019 4.71991 11.1937 4.9027 11.3774L9.82887 16.3035L9.82887 4.7659C9.82887 4.52824 9.9207 4.31758 10.1044 4.13392C10.288 3.95027 10.4987 3.85845 10.7363 3.85845C10.974 3.85845 11.1847 3.95027 11.3683 4.13392C11.552 4.31758 11.6438 4.52824 11.6438 4.7659L11.6438 16.3035Z" fill="#1C3557"/>
</svg>
