<svg width="10" height="6" viewBox="0 0 10 6" fill="none" xmlns="http://www.w3.org/2000/svg">
<path d="M5.3614 4.97384L5.36129 4.97393C5.30956 5.01911 5.25184 5.05256 5.1883 5.07253C5.12836 5.09138 5.06524 5.10028 4.99956 5.09999M5.3614 4.97384L4.63871 4.97393L4.63858 4.97382C4.69038 5.01933 4.74829 5.05292 4.81213 5.07267C4.87166 5.09109 4.93433 5.09995 4.99956 5.09999M5.3614 4.97384L8.90747 1.86795C9.03136 1.75975 9.1 1.62602 9.1 1.47004C9.1 1.31407 9.03136 1.18034 8.90747 1.07214L8.84169 1.14746L8.90757 1.07223C8.78344 0.963549 8.63499 0.909216 8.46723 0.909216C8.30137 0.909216 8.15579 0.9593 8.03713 1.06293L5 3.71516L1.96287 1.06293C1.83903 0.954775 1.6925 0.9 1.5277 0.9C1.36291 0.9 1.21638 0.954775 1.09253 1.06293C0.967355 1.17224 0.9 1.30946 0.9 1.47005C0.9 1.62839 0.962068 1.76323 1.08198 1.86795L4.63846 4.97372L5.3614 4.97384ZM4.99956 5.09999L5 5.00002V5.09999C4.99985 5.09999 4.99971 5.09999 4.99956 5.09999Z" fill="white" stroke="white" stroke-width="0.2"/>
</svg>
