<svg width="14" height="14" viewBox="0 0 14 14" fill="none" xmlns="http://www.w3.org/2000/svg">
<path d="M10.3751 6.5905L7.24031 3.45566C7.12344 3.33879 7.06501 3.20116 7.06501 3.04277C7.06501 2.88438 7.12344 2.74702 7.24031 2.6307C7.35718 2.51383 7.49481 2.4554 7.6532 2.4554C7.81159 2.4554 7.94895 2.51383 8.06527 2.6307L12.1901 6.75549C12.3069 6.87236 12.3654 7.00999 12.3654 7.16838C12.3654 7.32677 12.3069 7.46413 12.1901 7.58045L8.06527 11.7052C7.9484 11.8221 7.81077 11.8805 7.65238 11.8805C7.49398 11.8805 7.35663 11.8221 7.24031 11.7052C7.12344 11.5884 7.06501 11.4507 7.06501 11.2923C7.06501 11.134 7.12344 10.9966 7.24031 10.8803L10.3751 7.74544L3.03302 7.74544C2.88178 7.74544 2.74773 7.687 2.63086 7.57014C2.51399 7.45327 2.45555 7.31921 2.45555 7.16797C2.45555 7.01673 2.51399 6.88267 2.63086 6.7658C2.74773 6.64893 2.88178 6.5905 3.03302 6.5905L10.3751 6.5905Z" fill="#1C3557"/>
</svg>
