<svg width="14" height="14" viewBox="0 0 14 14" fill="none" xmlns="http://www.w3.org/2000/svg">
<path d="M3.62485 7.4095L6.75969 10.5443C6.87656 10.6612 6.93499 10.7988 6.93499 10.9572C6.93499 11.1156 6.87656 11.253 6.75969 11.3693C6.64282 11.4862 6.50519 11.5446 6.3468 11.5446C6.18841 11.5446 6.05105 11.4862 5.93473 11.3693L1.80994 7.24451C1.69307 7.12764 1.63464 6.99001 1.63464 6.83162C1.63464 6.67323 1.69307 6.53587 1.80994 6.41955L5.93473 2.29476C6.0516 2.17789 6.18923 2.11946 6.34762 2.11946C6.50602 2.11946 6.64337 2.17789 6.75969 2.29476C6.87656 2.41163 6.93499 2.54926 6.93499 2.70765C6.93499 2.86605 6.87656 3.0034 6.75969 3.11972L3.62485 6.25456L10.967 6.25456C11.1182 6.25456 11.2523 6.313 11.3691 6.42986C11.486 6.54673 11.5444 6.68079 11.5444 6.83203C11.5444 6.98327 11.486 7.11733 11.3691 7.2342C11.2523 7.35107 11.1182 7.4095 10.967 7.4095L3.62485 7.4095Z" fill="#1C3557"/>
</svg>
