<svg width="37" height="39" viewBox="0 0 37 39" fill="none" xmlns="http://www.w3.org/2000/svg">
<path d="M30.0625 36.5625H12.7188C12.1056 36.5619 11.5178 36.3048 11.0842 35.8479C10.6507 35.3909 10.4069 34.7713 10.4062 34.125V26.8125H12.7188V34.125H30.0625V7.3125H19.6562V4.875H30.0625C30.6756 4.87565 31.2635 5.13266 31.697 5.58964C32.1306 6.04662 32.3744 6.66623 32.375 7.3125V34.125C32.3744 34.7713 32.1306 35.3909 31.697 35.8479C31.2635 36.3048 30.6756 36.5619 30.0625 36.5625Z" fill="#D9D9D9"/>
<path d="M19.6562 12.1875H27.75V14.625H19.6562V12.1875ZM18.5 18.2812H27.75V20.7188H18.5V18.2812ZM17.3438 24.375H27.75V26.8125H17.3438V24.375ZM10.4062 23.1562C8.87344 23.1546 7.40384 22.5121 6.31998 21.3697C5.23612 20.2272 4.62653 18.6782 4.625 17.0625V3.65625H6.9375V17.0625C6.9375 18.0322 7.30296 18.9622 7.95347 19.6479C8.60399 20.3335 9.48628 20.7188 10.4062 20.7188C11.3262 20.7188 12.2085 20.3335 12.859 19.6479C13.5095 18.9622 13.875 18.0322 13.875 17.0625V6.09375C13.875 5.77052 13.7532 5.46052 13.5363 5.23196C13.3195 5.0034 13.0254 4.875 12.7188 4.875C12.4121 4.875 12.118 5.0034 11.9012 5.23196C11.6843 5.46052 11.5625 5.77052 11.5625 6.09375V18.2812H9.25V6.09375C9.25 5.12405 9.61546 4.19407 10.266 3.50839C10.9165 2.82271 11.7988 2.4375 12.7188 2.4375C13.6387 2.4375 14.521 2.82271 15.1715 3.50839C15.822 4.19407 16.1875 5.12405 16.1875 6.09375V17.0625C16.186 18.6782 15.5764 20.2272 14.4925 21.3697C13.4087 22.5121 11.9391 23.1546 10.4062 23.1562Z" fill="#D9D9D9"/>
</svg>
