<svg width="6" height="10" viewBox="0 0 6 10" fill="none" xmlns="http://www.w3.org/2000/svg">
<path d="M4.97384 4.6386L4.97393 4.63871C5.01911 4.69044 5.05256 4.74816 5.07253 4.8117C5.09138 4.87164 5.10028 4.93476 5.09999 5.00044M4.97384 4.6386L4.89861 4.70449C4.93548 4.7467 4.96165 4.79244 4.97714 4.84169C4.99262 4.89094 5.00024 4.94371 4.99999 5C4.99999 5.05629 4.99238 5.10906 4.97714 5.15831C4.9619 5.20756 4.93572 5.2533 4.89861 5.29551M4.97384 4.6386L1.86795 1.09253M4.97384 4.6386L1.86795 1.09253M5.09999 5.00044L5.00002 5L5.09999 5C5.09999 5.00015 5.09999 5.00029 5.09999 5.00044ZM5.09999 5.00044C5.09995 5.06567 5.09109 5.12834 5.07267 5.18787C5.05292 5.2517 5.01934 5.3096 4.97384 5.3614L4.97393 5.36129L4.89861 5.29551M4.89861 5.29551L1.79263 8.85224C1.7066 8.95075 1.59908 9 1.47005 9C1.34101 9 1.23041 8.94723 1.13825 8.84169C1.04608 8.73615 1 8.61302 1 8.4723C1 8.33157 1.04608 8.20844 1.13825 8.1029L3.84792 5M4.89861 5.29551L4.97372 5.36154L1.86795 8.91802C1.76323 9.03793 1.62839 9.1 1.47005 9.1C1.30946 9.1 1.17224 9.03264 1.06293 8.90746C0.954775 8.78362 0.9 8.63709 0.9 8.4723C0.9 8.3075 0.954775 8.16097 1.06293 8.03713L1.86795 1.09253M1.86795 1.09253L1.86785 1.09242C1.75967 0.968596 1.62597 0.899999 1.47005 0.899999C1.31411 0.899999 1.18041 0.9686 1.07223 1.09243C1.0722 1.09247 1.07217 1.0925 1.07214 1.09253L1.14747 1.15831C1.0553 1.26357 1.00922 1.38839 1.00922 1.53277C1.00922 1.67715 1.05223 1.79859 1.13825 1.8971L3.84792 5M3.84792 5L3.7726 4.93422L3.71516 5L3.7726 5.06578L3.84792 5Z" fill="#1C3557" stroke="#1C3557" stroke-width="0.2"/>
</svg>
