<svg width="24" height="19" viewBox="0 0 24 19" fill="none" xmlns="http://www.w3.org/2000/svg">
<path d="M15.2555 10.43H15.2555C15.7288 10.4304 16.185 10.5844 16.5689 10.8608C16.9537 10.5839 17.4109 10.43 17.8847 10.43C18.5064 10.43 19.1013 10.6913 19.539 11.1543C19.9766 11.617 20.2216 12.2435 20.2216 12.8957C20.2216 13.5476 19.9766 14.175 19.539 14.6378C19.1013 15.1008 18.5064 15.3621 17.8847 15.3621C17.4109 15.3621 16.9535 15.2082 16.5689 14.9312C16.185 15.2077 15.7288 15.3617 15.2555 15.3621H15.2555C14.6339 15.3621 14.0387 15.0998 13.6012 14.6371C13.1636 14.1745 12.9186 13.5477 12.9186 12.8957V12.8956C12.9188 12.2437 13.1637 11.6169 13.6011 11.1543L15.2555 10.43ZM15.2555 10.43C14.634 10.43 14.0387 10.6913 13.6012 11.1543L15.2555 10.43ZM3.9263 11.2092C3.83209 11.3065 3.78027 11.4388 3.78027 11.5753C3.78027 11.712 3.83208 11.8443 3.9263 11.9416C4.02028 12.0389 4.14854 12.0932 4.28251 12.0902H9.21826C9.35227 12.0932 9.48057 12.0389 9.57456 11.9415L9.50263 11.8721L9.57448 11.9416C9.66862 11.8444 9.72068 11.7121 9.72068 11.5753C9.72068 11.4387 9.66864 11.3065 9.57456 11.2093M3.9263 11.2092L3.99815 11.2787L3.92621 11.2093C3.92624 11.2092 3.92627 11.2092 3.9263 11.2092ZM3.9263 11.2092C4.0206 11.1116 4.14934 11.0573 4.28365 11.0604L4.29058 11.0606L9.21836 11.0604C9.35227 11.0577 9.48054 11.1119 9.57456 11.2093M9.57456 11.2093L9.50263 11.2787M9.57456 11.2093C9.57453 11.2092 9.5745 11.2092 9.57448 11.2092L9.50263 11.2787M9.50263 11.2787C9.42713 11.2006 9.32502 11.158 9.2194 11.1604L9.50263 11.2787ZM15.2745 11.46L15.2557 11.46C14.8988 11.4602 14.5555 11.6106 14.3013 11.8794C14.047 12.1484 13.9034 12.5133 13.9034 12.8959C13.9034 13.2784 14.0471 13.6441 14.3013 13.913C14.5556 14.1817 14.8988 14.3315 15.2555 14.3315C15.4758 14.3313 15.6904 14.2736 15.8824 14.1663C15.8444 14.0986 15.8101 14.0295 15.7783 13.9598C15.7727 13.9474 15.7673 13.9349 15.7623 13.9235L15.7622 13.9234C15.6739 13.7201 15.6125 13.5052 15.579 13.2832M15.2745 11.46L15.5716 13.2328M15.2745 11.46C15.4884 11.4634 15.6964 11.5207 15.883 11.625L15.2745 11.46ZM15.579 13.2832C15.5789 13.283 15.5789 13.2828 15.5789 13.2825L15.6777 13.2676L15.5791 13.2839C15.579 13.2837 15.579 13.2835 15.579 13.2832ZM15.579 13.2832C15.5762 13.2663 15.5738 13.2496 15.5716 13.2328M15.5716 13.2328C15.5573 13.1235 15.5469 13.0106 15.5469 12.8957C15.5469 12.7807 15.5573 12.6686 15.5716 12.5593L15.5717 12.5581L15.5718 12.5574C15.5741 12.5419 15.5764 12.5258 15.5789 12.5095C15.5789 12.5094 15.5789 12.5093 15.5789 12.5092L15.6777 12.5245L15.5716 13.2328ZM16.851 13.9734L16.8501 13.9717M16.851 13.9734C16.8536 13.976 16.8555 13.9789 16.858 13.9815C17.1303 14.2698 17.4994 14.4322 17.8847 14.4322L16.8501 13.9717M16.851 13.9734L16.8568 13.9675L16.8809 13.9431L16.9212 13.9022C16.9218 13.9028 16.9224 13.9034 16.9229 13.9039C16.9276 13.9087 16.931 13.913 16.9323 13.9145M16.851 13.9734L16.8979 13.9438L16.898 13.9438L16.9356 13.92C16.9373 13.9229 16.9388 13.9256 16.9398 13.9274L16.9405 13.9289L16.9409 13.9298L16.9323 13.9145M16.8501 13.9717C16.583 13.6846 16.4327 13.2982 16.4325 12.8955L16.8501 13.9717ZM16.9323 13.9145L16.9297 13.9105L16.9233 13.9036C16.6739 13.6355 16.5327 13.2736 16.5325 12.8955C16.5328 12.5499 16.6508 12.2184 16.8616 11.9591L16.9254 11.8859L16.926 11.8853C16.929 11.8818 16.9334 11.8768 16.9379 11.8713C17.1892 11.6094 17.5252 11.4624 17.8754 11.4599H17.8847C18.2417 11.4599 18.5847 11.6096 18.8388 11.8783L18.9115 11.8096L18.8388 11.8783C19.0932 12.1474 19.2367 12.5129 19.2367 12.8957C19.2367 13.2784 19.0931 13.6439 18.8388 13.9128L18.8388 13.9129C18.5846 14.1818 18.2413 14.3322 17.8847 14.3322C17.5287 14.3322 17.1863 14.1825 16.9323 13.9146L16.9323 13.9145ZM4.23917 13.3053L4.23917 13.3054C4.25394 13.3047 4.26856 13.3047 4.28332 13.3053H6.39134C6.52528 13.3026 6.65332 13.3569 6.74728 13.4539L6.74736 13.454C6.84138 13.5514 6.89348 13.6834 6.89348 13.8202C6.89348 13.9571 6.84138 14.0891 6.74736 14.1865L6.74728 14.1865C6.65343 14.2835 6.52539 14.3381 6.39124 14.3352H4.2825C4.0101 14.3417 3.79136 14.1186 3.779 13.8442M4.23917 13.3053L3.779 13.8442M4.23917 13.3053L4.23611 13.3056M4.23917 13.3053L4.23611 13.3056M3.779 13.8442C3.76646 13.5696 3.96432 13.3259 4.23611 13.3056M3.779 13.8442L4.23611 13.3056M1.88497 3.27252C1.88497 2.52314 2.43703 1.94208 3.13011 1.93006H3.15177H20.8482C21.5516 1.93006 22.1153 2.51526 22.1153 3.27271V4.60053H1.88497V3.27252ZM3.15177 0.900185C1.90676 0.900185 0.9 1.96968 0.9 3.27271V15.7275C0.9 17.0305 1.90676 18.1 3.15177 18.1L20.8482 18.0998C22.0932 18.0998 23.1 17.0303 23.1 15.7273V3.27253C23.1 1.9695 22.0932 0.9 20.8482 0.9L3.15177 0.900185ZM1.8847 5.6304H22.115V7.03514H1.8847V5.6304ZM1.88469 8.06573H22.115V15.7272C22.115 16.4845 21.5513 17.0698 20.848 17.0698H3.1515C2.44816 17.0698 1.88443 16.4846 1.88443 15.7272L1.88469 8.06573Z" fill="#1C3557" stroke="#1C3557" stroke-width="0.2"/>
</svg>
