<svg width="26" height="24" viewBox="0 0 26 24" fill="none" xmlns="http://www.w3.org/2000/svg">
<path d="M1.95651 3.60003H5.55644C6.30643 3.60003 6.93654 3.15012 7.20648 2.49009C7.50657 2.60999 7.77654 2.88015 7.86648 3.21014L9.69648 14.6401C8.34632 15.1501 7.35648 16.44 7.35648 18C7.35648 19.8901 8.82653 21.4499 10.6865 21.6C10.8664 22.9499 12.0065 24 13.4165 24C14.8265 24 15.9666 22.9499 16.1466 21.6H19.3865C19.5665 22.9499 20.7066 24 22.1166 24C23.6465 24 24.8766 22.77 24.8766 21.24C24.8766 19.7101 23.6465 18.48 22.1166 18.48C20.8865 18.48 19.8666 19.2901 19.5066 20.3701H16.0264C15.6665 19.2601 14.6463 18.48 13.4165 18.48C12.1864 18.48 11.1665 19.26 10.8065 20.3701C9.54653 20.2801 8.55653 19.2601 8.55653 17.97C8.55653 16.65 9.63653 15.57 10.9566 15.57H23.2565C24.5766 15.57 25.6566 14.49 25.6566 13.1699L25.6564 8.0999C25.6564 6.77985 24.5764 5.69986 23.2563 5.69986L9.51637 5.70007L9.06646 2.97003C9.06646 2.9401 9.06646 2.90997 9.03654 2.88004C8.76659 2.04005 8.10659 1.4401 7.2666 1.26016C7.05629 0.540105 6.36633 0 5.55628 0H1.95635C0.966354 0 0.15625 0.810051 0.15625 1.8001C0.15625 2.79015 0.9663 3.59999 1.95635 3.59999L1.95651 3.60003ZM22.1164 19.71C22.9564 19.71 23.6765 20.3999 23.6765 21.27C23.6763 22.1399 22.9564 22.8 22.1164 22.8C21.2764 22.8 20.5564 22.11 20.5564 21.2399C20.5564 20.37 21.2463 19.71 22.1164 19.71ZM13.4165 19.71C14.2565 19.71 14.9765 20.3999 14.9765 21.27C14.9765 22.1399 14.2565 22.8 13.4165 22.8C12.5765 22.8 11.8566 22.11 11.8566 21.2399C11.8566 20.37 12.5466 19.71 13.4165 19.71ZM23.2564 6.90002C23.9164 6.90002 24.4563 7.43991 24.4563 8.0999V13.1998C24.4563 13.8598 23.9164 14.3997 23.2564 14.3997L11.5565 14.3999H10.9565H10.8965L9.69658 6.89996L23.2564 6.90002ZM1.95651 1.20004H5.55644C5.88645 1.20004 6.15638 1.46999 6.15638 1.79998C6.15638 2.12999 5.88643 2.39993 5.55644 2.39993H1.95651C1.6265 2.39993 1.35656 2.12998 1.35656 1.79998C1.35656 1.46997 1.62651 1.20004 1.95651 1.20004Z" fill="white"/>
<path d="M13.207 8.40039C13.207 8.81452 12.8712 9.15038 12.457 9.15038C12.0427 9.15038 11.707 8.81452 11.707 8.40039C11.707 7.98626 12.0427 7.65039 12.457 7.65039C12.8712 7.65039 13.207 7.98626 13.207 8.40039Z" fill="white"/>
<path d="M16.5068 8.40039C16.5068 8.81452 16.1712 9.15038 15.7568 9.15038C15.3427 9.15038 15.0068 8.81452 15.0068 8.40039C15.0068 7.98626 15.3427 7.65039 15.7568 7.65039C16.1712 7.65039 16.5068 7.98626 16.5068 8.40039Z" fill="white"/>
<path d="M19.8066 8.40039C19.8066 8.81452 19.4708 9.15038 19.0566 9.15038C18.6425 9.15038 18.3066 8.81452 18.3066 8.40039C18.3066 7.98626 18.6425 7.65039 19.0566 7.65039C19.4708 7.65039 19.8066 7.98626 19.8066 8.40039Z" fill="white"/>
<path d="M23.1064 8.40039C23.1064 8.81452 22.7706 9.15038 22.3564 9.15038C21.9421 9.15038 21.6064 8.81452 21.6064 8.40039C21.6064 7.98626 21.9421 7.65039 22.3564 7.65039C22.7706 7.65039 23.1064 7.98626 23.1064 8.40039Z" fill="white"/>
<path d="M13.207 13.1992C13.207 13.6133 12.8712 13.9492 12.457 13.9492C12.0427 13.9492 11.707 13.6133 11.707 13.1992C11.707 12.7849 12.0427 12.4492 12.457 12.4492C12.8712 12.4492 13.207 12.7849 13.207 13.1992Z" fill="white"/>
<path d="M16.5068 13.1992C16.5068 13.6133 16.1712 13.9492 15.7568 13.9492C15.3427 13.9492 15.0068 13.6133 15.0068 13.1992C15.0068 12.7849 15.3427 12.4492 15.7568 12.4492C16.1712 12.4492 16.5068 12.7849 16.5068 13.1992Z" fill="white"/>
<path d="M19.8066 13.1992C19.8066 13.6133 19.4708 13.9492 19.0566 13.9492C18.6425 13.9492 18.3066 13.6133 18.3066 13.1992C18.3066 12.7849 18.6425 12.4492 19.0566 12.4492C19.4708 12.4492 19.8066 12.7849 19.8066 13.1992Z" fill="white"/>
<path d="M23.1064 13.1992C23.1064 13.6133 22.7706 13.9492 22.3564 13.9492C21.9421 13.9492 21.6064 13.6133 21.6064 13.1992C21.6064 12.7849 21.9421 12.4492 22.3564 12.4492C22.7706 12.4492 23.1064 12.7849 23.1064 13.1992Z" fill="white"/>
<path d="M14.706 10.8008C14.706 11.2149 14.3702 11.5508 13.9561 11.5508C13.5417 11.5508 13.2061 11.2149 13.2061 10.8008C13.2061 10.3864 13.5417 10.0508 13.9561 10.0508C14.3702 10.0508 14.706 10.3864 14.706 10.8008Z" fill="white"/>
<path d="M18.0068 10.8008C18.0068 11.2149 17.6712 11.5508 17.2568 11.5508C16.8427 11.5508 16.5068 11.2149 16.5068 10.8008C16.5068 10.3864 16.8427 10.0508 17.2568 10.0508C17.6712 10.0508 18.0068 10.3864 18.0068 10.8008Z" fill="white"/>
<path d="M21.3066 10.8008C21.3066 11.2149 20.9708 11.5508 20.5566 11.5508C20.1425 11.5508 19.8066 11.2149 19.8066 10.8008C19.8066 10.3864 20.1425 10.0508 20.5566 10.0508C20.9708 10.0508 21.3066 10.3864 21.3066 10.8008Z" fill="white"/>
</svg>
