<svg width="9" height="6" viewBox="0 0 9 6" fill="none" xmlns="http://www.w3.org/2000/svg">
<path d="M7.93212 1.86341L4.82932 4.96929L4.82922 4.96939C4.78332 5.0152 4.73109 5.05014 4.67234 5.07125C4.61743 5.09097 4.55956 5.10029 4.4995 5.09999M7.93212 1.86341L4.5 4.99999M7.93212 1.86341L7.86148 1.79263L7.93222 1.8633L7.93215 1.86337C8.04199 1.75374 8.1 1.62124 8.1 1.47005C8.1 1.31884 8.04198 1.18632 7.93212 1.07668L7.86148 1.14747L7.93221 1.07678C7.82201 0.966503 7.68761 0.909216 7.53383 0.909216C7.38211 0.909216 7.25011 0.961968 7.1444 1.06747L4.5 3.70664L1.8556 1.06747C1.74575 0.957829 1.61306 0.9 1.46174 0.9C1.31042 0.9 1.17774 0.957829 1.06788 1.06747C0.956973 1.17816 0.9 1.31413 0.9 1.47005C0.9 1.62388 0.95245 1.75742 1.05865 1.86341L4.17055 4.96916L7.93212 1.86341ZM4.4995 5.09999L4.5 4.99999M4.4995 5.09999C4.49967 5.09999 4.49983 5.09999 4.5 5.09999L4.5 4.99999M4.4995 5.09999C4.43995 5.09994 4.38259 5.09067 4.32814 5.07142C4.26904 5.05052 4.21661 5.0154 4.17066 4.96927L4.17078 4.96939L4.24142 4.89861C4.27836 4.93572 4.31838 4.9619 4.36148 4.97714C4.40457 4.99238 4.45075 4.99999 4.5 4.99999" fill="white" stroke="white" stroke-width="0.2"/>
</svg>
