<svg width="7" height="5" viewBox="0 0 7 5" fill="none" xmlns="http://www.w3.org/2000/svg">
<path d="M3.5 2.99109L1.63303 1.03465C1.55001 0.947648 1.44762 0.9 1.32982 0.9C1.21202 0.9 1.10962 0.947648 1.0266 1.03465C0.942633 1.12264 0.9 1.23042 0.9 1.35253C0.9 1.47262 0.939097 1.57872 1.02 1.66351L3.24273 3.99276C3.24277 3.99279 3.2428 3.99283 3.24284 3.99287C3.27796 4.02989 3.31896 4.05905 3.36625 4.0766C3.40878 4.09239 3.45345 4.09994 3.49948 4.09999C3.49965 4.09999 3.49983 4.1 3.5 4.1V2.99109ZM3.5 2.99109L5.36697 1.03465C5.44766 0.950095 5.54982 0.906912 5.66702 0.906912C5.78633 0.906912 5.89001 0.95396 5.97345 1.04161L3.5 2.99109Z" fill="#1C3557" stroke="#1C3557" stroke-width="0.2"/>
</svg>
