<svg width="8" height="4" viewBox="0 0 8 4" fill="none" xmlns="http://www.w3.org/2000/svg">
<path opacity="0.5" d="M7.84169 0.792625L4.29551 3.89861C4.2533 3.93548 4.20756 3.96165 4.15831 3.97714C4.10906 3.99262 4.05629 4.00024 4 3.99999C3.94371 3.99999 3.89094 3.99238 3.84169 3.97714C3.79244 3.9619 3.7467 3.93572 3.70449 3.89861L0.147757 0.792626C0.0492522 0.706604 -1.48659e-07 0.599078 -1.54299e-07 0.470046C-1.59939e-07 0.341013 0.0527703 0.230415 0.158311 0.138249C0.263852 0.0460832 0.386983 2.21503e-07 0.527704 2.15352e-07C0.668426 2.09201e-07 0.791557 0.0460832 0.897097 0.138249L4 2.84792L7.1029 0.138249C7.20141 0.0522272 7.32285 0.00921647 7.46723 0.00921646C7.61161 0.00921645 7.73643 0.0552992 7.84169 0.147465C7.94723 0.239631 8 0.347157 8 0.470045C8 0.592933 7.94723 0.70046 7.84169 0.792625Z" fill="#1C3557"/>
</svg>
