<svg width="20" height="20" viewBox="0 0 20 20" fill="none" xmlns="http://www.w3.org/2000/svg">
<path d="M15.2492 4.75754C15.1721 4.68029 15.0805 4.619 14.9797 4.57718C14.8789 4.53536 14.7708 4.51384 14.6617 4.51384C14.5526 4.51384 14.4445 4.53536 14.3437 4.57718C14.2429 4.619 14.1513 4.68029 14.0742 4.75754L9.99921 8.82421L5.92421 4.74921C5.84706 4.67206 5.75547 4.61086 5.65466 4.5691C5.55386 4.52735 5.44582 4.50586 5.33671 4.50586C5.2276 4.50586 5.11956 4.52735 5.01876 4.5691C4.91795 4.61086 4.82636 4.67206 4.74921 4.74921C4.67206 4.82636 4.61086 4.91795 4.5691 5.01876C4.52735 5.11956 4.50586 5.2276 4.50586 5.33671C4.50586 5.44582 4.52735 5.55386 4.5691 5.65466C4.61086 5.75547 4.67206 5.84706 4.74921 5.92421L8.82421 9.99921L4.74921 14.0742C4.67206 14.1514 4.61086 14.243 4.5691 14.3438C4.52735 14.4446 4.50586 14.5526 4.50586 14.6617C4.50586 14.7708 4.52735 14.8789 4.5691 14.9797C4.61086 15.0805 4.67206 15.1721 4.74921 15.2492C4.82636 15.3264 4.91795 15.3876 5.01876 15.4293C5.11956 15.4711 5.2276 15.4926 5.33671 15.4926C5.44582 15.4926 5.55386 15.4711 5.65466 15.4293C5.75547 15.3876 5.84706 15.3264 5.92421 15.2492L9.99921 11.1742L14.0742 15.2492C14.1514 15.3264 14.243 15.3876 14.3438 15.4293C14.4446 15.4711 14.5526 15.4926 14.6617 15.4926C14.7708 15.4926 14.8789 15.4711 14.9797 15.4293C15.0805 15.3876 15.1721 15.3264 15.2492 15.2492C15.3264 15.1721 15.3876 15.0805 15.4293 14.9797C15.4711 14.8789 15.4926 14.7708 15.4926 14.6617C15.4926 14.5526 15.4711 14.4446 15.4293 14.3438C15.3876 14.243 15.3264 14.1514 15.2492 14.0742L11.1742 9.99921L15.2492 5.92421C15.5659 5.60754 15.5659 5.07421 15.2492 4.75754Z" fill="#1C3557"/>
</svg>
