<svg width="25" height="25" viewBox="0 0 25 25" fill="none" xmlns="http://www.w3.org/2000/svg">
<path d="M12.5003 20.8327C11.5281 20.8327 10.6121 20.6806 9.75241 20.3764C8.89269 20.0723 8.10727 19.6428 7.39616 19.0879L5.93783 20.5202C5.74686 20.7112 5.5038 20.8066 5.20866 20.8066C4.91352 20.8066 4.67047 20.7112 4.47949 20.5202C4.28852 20.3292 4.19304 20.0862 4.19304 19.791C4.19304 19.4959 4.28852 19.2528 4.47949 19.0618L5.91179 17.6296C5.35623 16.9178 4.92637 16.1278 4.6222 15.2598C4.31804 14.3917 4.1663 13.4716 4.16699 12.4993C4.16699 10.173 4.97429 8.20247 6.58887 6.58789C8.20345 4.97331 10.1739 4.16602 12.5003 4.16602H20.8337V12.4993C20.8337 14.8257 20.0264 16.7962 18.4118 18.4108C16.7972 20.0254 14.8267 20.8327 12.5003 20.8327ZM12.5003 18.7493C14.2364 18.7493 15.7121 18.1417 16.9274 16.9264C18.1427 15.7112 18.7503 14.2355 18.7503 12.4993V6.24935H12.5003C10.7642 6.24935 9.28852 6.85699 8.07324 8.07227C6.85797 9.28754 6.25033 10.7632 6.25033 12.4993C6.25033 13.1764 6.35449 13.8233 6.56283 14.44C6.77116 15.0566 7.05762 15.6164 7.4222 16.1191L12.8128 10.7285C13.0038 10.5375 13.2469 10.4421 13.542 10.4421C13.8371 10.4421 14.0802 10.5375 14.2712 10.7285C14.4795 10.9368 14.5837 11.1844 14.5837 11.4712C14.5837 11.758 14.4795 12.0053 14.2712 12.2129L8.88054 17.6035C9.38401 17.9681 9.94408 18.2504 10.5607 18.4504C11.1774 18.6504 11.8239 18.75 12.5003 18.7493Z" fill="#1C3557"/>
</svg>
