<svg width="20" height="20" viewBox="0 0 20 20" fill="none" xmlns="http://www.w3.org/2000/svg">
<path d="M10.0003 18.3327C8.86144 18.3327 7.78505 18.1138 6.77116 17.676C5.75727 17.2382 4.87172 16.641 4.11449 15.8843C3.35783 15.1277 2.7606 14.2424 2.32283 13.2285C1.88505 12.2146 1.66644 11.1382 1.66699 9.99935C1.66699 8.84657 1.88588 7.76657 2.32366 6.75935C2.76144 5.75213 3.35866 4.87046 4.11533 4.11435C4.87199 3.35713 5.75699 2.7599 6.77033 2.32268C7.78366 1.88546 8.86033 1.66657 10.0003 1.66602C11.1531 1.66602 12.2331 1.8849 13.2403 2.32268C14.2475 2.76046 15.1292 3.35768 15.8853 4.11435C16.6425 4.87102 17.2398 5.75296 17.677 6.76018C18.1142 7.7674 18.3331 8.84713 18.3337 9.99935V11.2077C18.3337 12.0271 18.0525 12.7252 17.4903 13.3018C16.9281 13.8785 16.237 14.1666 15.417 14.166C14.917 14.166 14.4517 14.0549 14.0212 13.8327C13.5906 13.6105 13.2364 13.3188 12.9587 12.9577C12.5837 13.3327 12.1425 13.628 11.6353 13.8435C11.1281 14.0591 10.5831 14.1666 10.0003 14.166C8.84755 14.166 7.86477 13.7596 7.05199 12.9468C6.23922 12.1341 5.8331 11.1516 5.83366 9.99935C5.83366 8.84657 6.24005 7.86379 7.05283 7.05102C7.8656 6.23824 8.8481 5.83213 10.0003 5.83268C11.1531 5.83268 12.1359 6.23907 12.9487 7.05185C13.7614 7.86463 14.1675 8.84713 14.167 9.99935V11.2077C14.167 11.6105 14.292 11.9263 14.542 12.1552C14.792 12.3841 15.0837 12.4988 15.417 12.4993C15.7503 12.4993 16.042 12.3846 16.292 12.1552C16.542 11.9257 16.667 11.6099 16.667 11.2077V9.99935C16.667 8.1799 16.0106 6.61379 14.6978 5.30102C13.385 3.98824 11.8192 3.33213 10.0003 3.33268C8.18088 3.33268 6.61477 3.98907 5.30199 5.30185C3.98922 6.61463 3.3331 8.18046 3.33366 9.99935C3.33366 11.8188 3.99005 13.3849 5.30283 14.6977C6.6156 16.0105 8.18144 16.6666 10.0003 16.666H14.167V18.3327H10.0003ZM10.0003 12.4993C10.6948 12.4993 11.285 12.2563 11.7712 11.7702C12.2573 11.2841 12.5003 10.6938 12.5003 9.99935C12.5003 9.3049 12.2573 8.71463 11.7712 8.22852C11.285 7.7424 10.6948 7.49935 10.0003 7.49935C9.30588 7.49935 8.7156 7.7424 8.22949 8.22852C7.74338 8.71463 7.50033 9.3049 7.50033 9.99935C7.50033 10.6938 7.74338 11.2841 8.22949 11.7702C8.7156 12.2563 9.30588 12.4993 10.0003 12.4993Z" fill="#1C3557"/>
</svg>
