<svg width="26" height="19" viewBox="0 0 26 19" fill="none" xmlns="http://www.w3.org/2000/svg">
<path d="M13 0.25C9.6525 0.25 7.02 2.79313 6.65194 6.03906C5.94396 6.15314 5.28 6.45652 4.73034 6.91708C4.18067 7.37764 3.76575 7.97824 3.5295 8.65531C1.53075 9.23137 0 11.014 0 13.25C0 15.9508 2.17425 18.125 4.875 18.125H21.125C23.8258 18.125 26 15.9508 26 13.25C26 11.82 25.3053 10.5395 24.2986 9.64412C24.1101 6.789 21.8327 4.51075 18.967 4.36287C17.9888 1.98306 15.7446 0.25 13 0.25ZM13 1.875C15.2441 1.875 17.0381 3.31312 17.6719 5.3525L17.8506 5.9375H18.6875C20.9259 5.9375 22.75 7.76156 22.75 10V10.4062L23.0799 10.6606C23.478 10.9657 23.8015 11.3574 24.0259 11.806C24.2503 12.2546 24.3697 12.7484 24.375 13.25C24.375 15.0992 22.9743 16.5 21.125 16.5H4.875C3.02575 16.5 1.625 15.0992 1.625 13.25C1.625 11.6088 2.80313 10.3348 4.29 10.0764L4.82381 9.97481L4.92537 9.44019C5.16913 8.34575 6.13925 7.5625 7.3125 7.5625H8.125V6.75C8.125 4.01188 10.2619 1.875 13 1.875ZM13 6.42013L12.415 6.97831L9.165 10.2283L10.335 11.3983L12.1875 9.54256V14.875H13.8125V9.54256L15.665 11.3967L16.835 10.2267L13.585 6.97669L13 6.42013Z" fill="#1C3557"/>
</svg>
