<svg width="18" height="18" viewBox="0 0 18 18" fill="none" xmlns="http://www.w3.org/2000/svg">
<path d="M10.0993 14.9271C8.39278 14.9271 6.80115 14.3103 5.58874 13.2653L1.92836 16.9323C1.80771 17.0532 1.66221 17.1 1.50275 17.1C1.34318 17.1 1.19764 17.0532 1.07709 16.9323C0.843746 16.6984 0.837559 16.3175 1.07901 16.0977L4.75755 12.4315C3.73325 11.2187 3.09813 9.64327 3.09813 7.91352C3.09813 4.04615 6.23836 0.9 10.0991 0.9C13.9598 0.9 17.1 4.04622 17.1 7.91352C17.1 11.7808 13.9601 14.9271 10.0993 14.9271ZM10.0993 2.08772C6.90145 2.08772 4.28419 4.70949 4.28419 7.91359C4.28419 11.1177 6.90145 13.7395 10.0993 13.7395C13.2971 13.7395 15.9144 11.1177 15.9144 7.91359C15.9144 4.70949 13.2972 2.08772 10.0993 2.08772Z" fill="#1C3557" stroke="#1C3557" stroke-width="0.2"/>
</svg>
