<svg width="24" height="24" viewBox="0 0 24 24" fill="none" xmlns="http://www.w3.org/2000/svg">
<path d="M12 6.46154C10.9046 6.46154 9.83379 6.78636 8.923 7.39494C8.0122 8.00351 7.30232 8.8685 6.88313 9.88052C6.46394 10.8925 6.35426 12.0061 6.56796 13.0805C6.78166 14.1549 7.30915 15.1417 8.08372 15.9163C8.85828 16.6909 9.84514 17.2183 10.9195 17.432C11.9939 17.6457 13.1075 17.5361 14.1195 17.1169C15.1315 16.6977 15.9965 15.9878 16.6051 15.077C17.2136 14.1662 17.5385 13.0954 17.5385 12C17.5369 10.5316 16.9529 9.12374 15.9146 8.0854C14.8763 7.04707 13.4684 6.46307 12 6.46154ZM12 15.6923C11.2697 15.6923 10.5559 15.4758 9.94866 15.07C9.34147 14.6643 8.86821 14.0877 8.58875 13.413C8.30929 12.7383 8.23617 11.9959 8.37864 11.2797C8.52111 10.5634 8.87277 9.90552 9.38914 9.38914C9.90552 8.87277 10.5634 8.52111 11.2797 8.37864C11.9959 8.23617 12.7383 8.30929 13.413 8.58875C14.0877 8.86821 14.6643 9.34147 15.07 9.94866C15.4758 10.5559 15.6923 11.2697 15.6923 12C15.6923 12.9793 15.3033 13.9184 14.6109 14.6109C13.9184 15.3033 12.9793 15.6923 12 15.6923ZM17.5385 0H6.46154C4.74839 0.00183257 3.10594 0.683188 1.89456 1.89456C0.683188 3.10594 0.00183257 4.74839 0 6.46154V17.5385C0.00183257 19.2516 0.683188 20.8941 1.89456 22.1054C3.10594 23.3168 4.74839 23.9982 6.46154 24H17.5385C19.2516 23.9982 20.8941 23.3168 22.1054 22.1054C23.3168 20.8941 23.9982 19.2516 24 17.5385V6.46154C23.9982 4.74839 23.3168 3.10594 22.1054 1.89456C20.8941 0.683188 19.2516 0.00183257 17.5385 0ZM22.1538 17.5385C22.1538 18.7625 21.6676 19.9365 20.802 20.802C19.9365 21.6676 18.7625 22.1538 17.5385 22.1538H6.46154C5.23746 22.1538 4.06352 21.6676 3.19797 20.802C2.33242 19.9365 1.84615 18.7625 1.84615 17.5385V6.46154C1.84615 5.23746 2.33242 4.06352 3.19797 3.19797C4.06352 2.33242 5.23746 1.84615 6.46154 1.84615H17.5385C18.7625 1.84615 19.9365 2.33242 20.802 3.19797C21.6676 4.06352 22.1538 5.23746 22.1538 6.46154V17.5385ZM19.3846 6C19.3846 6.27385 19.3034 6.54155 19.1513 6.76925C18.9991 6.99695 18.7829 7.17442 18.5299 7.27922C18.2769 7.38402 17.9985 7.41144 17.7299 7.35801C17.4613 7.30458 17.2146 7.17271 17.0209 6.97907C16.8273 6.78543 16.6954 6.53871 16.642 6.27013C16.5886 6.00154 16.616 5.72314 16.7208 5.47013C16.8256 5.21713 17.003 5.00088 17.2307 4.84873C17.4584 4.69659 17.7261 4.61538 18 4.61538C18.3672 4.61538 18.7194 4.76126 18.9791 5.02093C19.2387 5.28059 19.3846 5.63278 19.3846 6Z" fill="#1C3557"/>
</svg>
