<svg width="9" height="8" viewBox="0 0 9 8" fill="none" xmlns="http://www.w3.org/2000/svg">
<path d="M2.51535 1.375L7.26535 1.375C7.44244 1.375 7.59098 1.315 7.71098 1.195C7.83098 1.075 7.89077 0.92667 7.89035 0.750003C7.89035 0.57292 7.83035 0.424378 7.71035 0.304378C7.59035 0.184378 7.44202 0.124586 7.26535 0.125003L1.01535 0.125002C0.838269 0.125002 0.689728 0.185002 0.569728 0.305002C0.449728 0.425002 0.389936 0.573335 0.390353 0.750002L0.390353 7C0.390353 7.17708 0.450353 7.32563 0.570353 7.44563C0.690353 7.56563 0.838686 7.62542 1.01535 7.625C1.19244 7.625 1.34098 7.565 1.46098 7.445C1.58098 7.325 1.64077 7.17667 1.64035 7L1.64035 2.25L7.20285 7.8125C7.31744 7.92709 7.46327 7.98438 7.64035 7.98438C7.81744 7.98438 7.96327 7.92709 8.07785 7.8125C8.19244 7.69792 8.24973 7.55209 8.24973 7.375C8.24973 7.19792 8.19244 7.05209 8.07785 6.9375L2.51535 1.375Z" fill="#1C3557"/>
</svg>
