<svg width="6" height="10" viewBox="0 0 6 10" fill="none" xmlns="http://www.w3.org/2000/svg">
<path d="M4.97384 4.6386L4.97393 4.63871C5.01911 4.69044 5.05256 4.74816 5.07253 4.8117C5.09138 4.87164 5.10028 4.93476 5.09999 5.00044M4.97384 4.6386L4.99999 5M4.97384 4.6386L1.86795 1.09253C1.86793 1.09252 1.86792 1.0925 1.86791 1.09249C1.75972 0.968621 1.626 0.9 1.47004 0.9C1.31407 0.9 1.18034 0.968638 1.07214 1.09253L1.14746 1.15831L1.07223 1.09244C0.963548 1.21656 0.909216 1.36501 0.909216 1.53277C0.909216 1.69863 0.9593 1.84421 1.06293 1.96287L3.71516 5M4.97384 4.6386L4.97372 5.36154M5.09999 5.00044L4.99999 5M5.09999 5.00044C5.09999 5.00029 5.09999 5.00015 5.09999 5H4.99999M5.09999 5.00044C5.09995 5.06567 5.09109 5.12834 5.07267 5.18787C5.05292 5.25169 5.01935 5.30959 4.97385 5.36138L4.97393 5.36129L4.89861 5.29551M4.99999 5C4.99999 5.05629 4.99237 5.10906 4.97714 5.15831C4.9619 5.20756 4.93572 5.2533 4.89861 5.29551M4.89861 5.29551L4.97372 5.36154M4.89861 5.29551L4.97372 5.36154M4.97372 5.36154L1.86795 8.91802C1.76323 9.03793 1.62839 9.1 1.47005 9.1C1.30946 9.1 1.17224 9.03265 1.06293 8.90747C0.954775 8.78362 0.9 8.63709 0.9 8.4723C0.9 8.3075 0.954775 8.16097 1.06293 8.03713L3.71516 5M3.71516 5L3.7726 5.06578L3.84792 5L3.7726 4.93422L3.71516 5Z" fill="#1C3557" stroke="#1C3557" stroke-width="0.2"/>
</svg>
