<svg width="8" height="8" viewBox="0 0 8 8" fill="none" xmlns="http://www.w3.org/2000/svg">
<path d="M5.83698 1.27237L1.00199 1.27237C0.821736 1.27237 0.670537 1.21129 0.54839 1.08915C0.426243 0.967001 0.365381 0.816013 0.365806 0.636186C0.365806 0.455934 0.426879 0.304735 0.549026 0.182588C0.671173 0.0604406 0.822161 -0.000421024 1.00199 3.0752e-06L7.36382 2.28076e-06C7.54407 2.25826e-06 7.69527 0.0610758 7.81741 0.183223C7.93956 0.30537 8.00042 0.456357 8 0.636185L8 6.99801C8 7.17826 7.93892 7.32946 7.81678 7.45161C7.69463 7.57376 7.54364 7.63462 7.36381 7.63419C7.18356 7.63419 7.03236 7.57312 6.91022 7.45097C6.78807 7.32883 6.72721 7.17784 6.72763 6.99801L6.72763 2.16302L1.06561 7.82505C0.948973 7.94168 0.80053 8 0.620278 8C0.440026 8 0.291585 7.94168 0.174951 7.82505C0.0583173 7.70842 -3.30457e-07 7.55997 -3.22578e-07 7.37972C-3.14699e-07 7.19947 0.0583174 7.05103 0.174951 6.93439L5.83698 1.27237Z" fill="#1C3557"/>
</svg>
