<svg width="5" height="10" viewBox="0 0 5 10" fill="none" xmlns="http://www.w3.org/2000/svg">
<path d="M0.990783 0.197889L4.87327 4.63061C4.91935 4.68338 4.95207 4.74055 4.97142 4.80211C4.99078 4.86368 5.0003 4.92964 4.99999 5C4.99999 5.07036 4.99047 5.13632 4.97142 5.19789C4.95237 5.25945 4.91966 5.31662 4.87327 5.36939L0.990782 9.8153C0.883255 9.93843 0.748847 10 0.587557 10C0.426267 10 0.288018 9.93404 0.172811 9.80211C0.0576034 9.67018 4.22889e-08 9.51627 5.76667e-08 9.34037C7.30445e-08 9.16447 0.0576034 9.01055 0.172811 8.87863L3.5599 5L0.172812 1.12137C0.065285 0.99824 0.0115212 0.846438 0.0115212 0.665963C0.0115212 0.485488 0.0691251 0.329463 0.184332 0.197889C0.299539 0.0659624 0.433948 -3.99177e-07 0.587558 -3.85748e-07C0.741167 -3.72319e-07 0.875575 0.0659624 0.990783 0.197889Z" fill="#1C3557"/>
</svg>
