<svg width="14" height="14" viewBox="0 0 14 14" fill="none" xmlns="http://www.w3.org/2000/svg">
<path d="M10.3761 7.4095L7.24129 10.5443C7.12442 10.6612 7.06598 10.7988 7.06598 10.9572C7.06598 11.1156 7.12442 11.253 7.24129 11.3693C7.35816 11.4862 7.49579 11.5446 7.65418 11.5446C7.81257 11.5446 7.94992 11.4862 8.06624 11.3693L12.191 7.24451C12.3079 7.12764 12.3663 6.99001 12.3663 6.83162C12.3663 6.67323 12.3079 6.53587 12.191 6.41955L8.06624 2.29476C7.94937 2.17789 7.81174 2.11946 7.65335 2.11946C7.49496 2.11946 7.3576 2.17789 7.24129 2.29476C7.12442 2.41163 7.06598 2.54926 7.06598 2.70765C7.06598 2.86605 7.12442 3.0034 7.24129 3.11972L10.3761 6.25456L3.034 6.25456C2.88276 6.25456 2.7487 6.313 2.63183 6.42986C2.51496 6.54673 2.45653 6.68079 2.45653 6.83203C2.45653 6.98327 2.51496 7.11733 2.63183 7.2342C2.7487 7.35107 2.88276 7.4095 3.034 7.4095L10.3761 7.4095Z" fill="#1C3557"/>
</svg>
