<svg width="100" height="59" viewBox="0 0 100 59" fill="none" xmlns="http://www.w3.org/2000/svg">
<path d="M99.8382 10.9128C99.975 11.4235 99.7868 11.9673 99.3672 12.2838L38.7116 58.144C38.3672 58.4056 37.915 58.4771 37.5077 58.3364C37.0999 58.1966 36.7876 57.8624 36.6758 57.4452C36.6018 57.1689 36.6013 57.1639 42.037 26.4017L22.1331 2.69565C21.7905 2.28638 21.7324 1.7101 21.9873 1.2396L22.0036 1.21149C22.2638 0.760773 22.7703 0.50712 23.2885 0.572757L98.7426 9.96144C99.2667 10.0272 99.7006 10.4035 99.8375 10.9141L99.8382 10.9128ZM39.7816 54.0797L92.4965 14.2225L44.5543 27.0685C43.883 30.8695 41.0203 47.0684 39.7816 54.0797ZM26.2457 3.55489L43.8828 24.561L91.8263 11.7156L26.2457 3.55489Z" fill="#1C3557"/>
<path d="M38.5164 29.1452C36.6893 29.1758 35.1713 29.3153 33.9069 29.5301C34.2624 31.3602 34.1881 32.779 34.1814 32.8995C33.983 36.1745 32.6577 37.1927 30.7253 37.7126C29.7088 37.985 28.5194 37.8692 27.4625 37.3969C26.2803 36.8689 25.4391 35.9556 25.155 34.8922C25.0952 34.6689 24.6128 32.6531 26.1749 30.5837C27.1305 29.3158 28.6232 28.3426 30.6333 27.6695C30.2156 26.739 29.6197 25.8295 28.768 25.0922C26.8101 23.397 23.848 22.9429 19.9518 23.7451C19.8958 23.7563 14.4615 24.8684 11.902 28.5924C13.8701 27.8656 15.638 27.691 17.1956 28.0751C20.5017 28.8897 21.497 31.8729 21.5561 32.0616C22.0298 33.8294 21.7862 35.677 20.871 37.262C19.955 38.8486 18.4777 39.9818 16.7112 40.4531C14.8726 40.9475 12.8889 40.6627 11.2675 39.6725C9.7266 38.732 8.67337 37.2666 8.30308 35.5457C8.16786 34.9175 8.0785 34.3038 8.03502 33.7045C6.34937 34.9156 4.40387 36.5535 2.16573 38.7506L0.34668 36.8987C3.22285 34.0741 5.87404 31.908 8.28678 30.4079C8.55255 29.3066 9.00228 28.2727 9.6432 27.2982C12.754 22.5673 19.1768 21.249 19.4383 21.198C24.1579 20.2261 27.8691 20.8758 30.4681 23.1272C31.7734 24.2569 32.6237 25.6506 33.1786 27.0263C34.731 26.7414 36.4976 26.5816 38.4746 26.5491L38.5164 29.1452ZM28.2883 32.0904C27.4381 33.1782 27.6585 34.1989 27.6612 34.2198C27.8432 34.8991 29.1621 35.4417 30.0527 35.203C30.5847 35.0605 30.9679 34.9578 31.2218 34.5181C31.4159 34.1818 31.5366 33.6459 31.5901 32.7431C31.5915 32.7198 31.6508 31.6017 31.3839 30.148C29.7257 30.7145 28.801 31.4386 28.2883 32.0904ZM10.6443 32.0368C10.5504 32.9656 10.6158 33.9557 10.8393 34.9989C11.0588 36.0177 11.6902 36.8902 12.6186 37.4577C13.6366 38.0788 14.8813 38.2561 16.0385 37.9451C17.1366 37.6509 18.053 36.948 18.6216 35.9633C19.1895 34.9796 19.341 33.8316 19.0694 32.8068C19.0449 32.7344 18.4386 31.0352 16.5357 30.5871C15.4855 30.3394 13.6162 30.3966 10.6443 32.0368Z" fill="#1C3557"/>
</svg>
