<svg width="74" height="74" viewBox="0 0 74 74" fill="none" xmlns="http://www.w3.org/2000/svg">
<path d="M0.379318 0.379892C0.753128 0.00608199 1.31819 -0.102879 1.80212 0.102283L71.846 29.7014C72.2448 29.8689 72.5328 30.2248 72.6145 30.6479C72.6974 31.0709 72.5641 31.5085 72.2587 31.8139C72.0564 32.0162 72.0524 32.0191 42.6937 42.6928L32.1156 71.783C31.9324 72.2843 31.4624 72.6228 30.9275 72.6373H30.895C30.3746 72.6373 29.9016 72.3255 29.6994 71.8439L0.103195 1.80441C-0.101967 1.31758 0.00698853 0.753672 0.380798 0.379847L0.379318 0.379892ZM67.7912 30.8069L6.91635 5.08312L42.0125 40.1793C45.6399 38.8602 61.0999 33.2402 67.7912 30.8072V30.8069ZM30.8034 67.7918L40.1766 42.0146L5.08046 6.91693L30.8034 67.7918Z" fill="#1C3557"/>
<path d="M46.8304 44.3691C47.7704 45.9362 48.6502 47.1811 49.4685 48.1687C50.8756 46.9458 52.1414 46.3007 52.2492 46.2463C55.1846 44.7806 56.7291 45.4193 58.1455 46.8328C58.8897 47.5769 59.3841 48.6648 59.5034 49.8163C59.6373 51.1041 59.267 52.2893 58.4881 53.067C58.3246 53.2304 56.8201 54.6562 54.2468 54.338C52.671 54.1444 51.0819 53.3382 49.4939 51.934C48.897 52.761 48.4072 53.7317 48.1945 54.8381C47.7054 57.3813 48.7932 60.1735 51.4361 63.1467C51.4737 63.1895 55.154 67.3398 59.6588 67.6944C58.0454 66.3533 57.0102 64.9095 56.5641 63.3686C55.6165 60.0982 57.7023 57.7446 57.8362 57.5991C59.1303 56.3049 60.8522 55.5921 62.6824 55.5921C64.5145 55.5921 66.2345 56.305 67.5259 57.5991C68.8733 58.9442 69.6186 60.8045 69.5717 62.7038C69.5277 64.5085 68.7852 66.1533 67.48 67.3344C67.0036 67.7656 66.5168 68.1499 66.0195 68.4872C67.9112 69.3415 70.3024 70.2073 73.3242 71.0471L72.6299 73.5484C68.7457 72.4699 65.5442 71.2569 63.0387 69.9174C61.9521 70.2379 60.8318 70.3654 59.6674 70.2976C54.0149 69.969 49.6618 65.0659 49.4869 64.8649C46.2855 61.2636 44.9925 57.7247 45.6427 54.3482C45.9685 52.653 46.7503 51.2198 47.6642 50.0514C46.6413 48.8494 45.6196 47.3993 44.603 45.7035L46.8304 44.3691ZM54.495 51.7544C55.8622 51.9468 56.6359 51.2455 56.6527 51.2328C57.1499 50.7355 56.9604 49.322 56.3084 48.6701C55.919 48.2806 55.6385 48.0001 55.1308 48.0001C54.7425 48.0001 54.218 48.1635 53.4094 48.5686C53.3886 48.5791 52.3906 49.0868 51.2651 50.0448C52.5847 51.1975 53.6742 51.6363 54.495 51.7544ZM63.2706 67.0614C64.122 66.6783 64.9467 66.1266 65.7384 65.4114C66.5109 64.7119 66.9508 63.7289 66.978 62.6411C67.007 61.4489 66.5382 60.2824 65.6903 59.4356C64.8864 58.6318 63.8195 58.1896 62.6824 58.1896C61.5465 58.1896 60.4767 58.6324 59.7249 59.38C59.6745 59.4374 58.5061 60.8121 59.0694 62.6841C59.38 63.7175 60.3642 65.3077 63.2706 67.0614Z" fill="#1C3557"/>
</svg>
