<svg width="24" height="24" viewBox="0 0 24 24" fill="none" xmlns="http://www.w3.org/2000/svg">
<rect x="0.85" y="0.85" width="22.3" height="22.3" rx="4.15" stroke="#1C3557" stroke-width="1.7"/>
<path d="M19.1875 10.7492C19.1875 12.593 18.5398 14.2828 17.3633 15.5055C16.2594 16.6531 14.7602 17.3117 13.25 17.3117C12.043 17.3117 11.1578 16.9852 10.5242 16.5844L9.7875 19.7141C9.76034 19.835 9.70947 19.9493 9.63785 20.0504C9.56622 20.1516 9.47526 20.2375 9.37022 20.3032C9.26518 20.369 9.14814 20.4133 9.02589 20.4335C8.90363 20.4537 8.77857 20.4495 8.65795 20.4211C8.53732 20.3927 8.42353 20.3407 8.32314 20.268C8.22275 20.1954 8.13776 20.1035 8.07309 19.9978C8.00842 19.8921 7.96535 19.7746 7.94636 19.6522C7.92738 19.5297 7.93287 19.4047 7.9625 19.2844L10.4625 8.65939C10.4897 8.53848 10.5405 8.42416 10.6122 8.32303C10.6838 8.22191 10.7747 8.13598 10.8798 8.07023C10.9848 8.00448 11.1019 7.96021 11.2241 7.93997C11.3464 7.91974 11.4714 7.92394 11.5921 7.95234C11.7127 7.98074 11.8265 8.03277 11.9269 8.10543C12.0273 8.17809 12.1122 8.26993 12.1769 8.37563C12.2416 8.48134 12.2847 8.59882 12.3036 8.72128C12.3226 8.84374 12.3171 8.96875 12.2875 9.08908L11.0023 14.5524C11.275 14.8789 11.9344 15.4367 13.25 15.4367C15.2469 15.4367 17.3125 13.6828 17.3125 10.7492C17.3121 9.93461 17.1243 9.131 16.7638 8.40052C16.4032 7.67005 15.8794 7.03228 15.233 6.53652C14.5866 6.04076 13.8349 5.7003 13.0359 5.54146C12.2369 5.38261 11.4121 5.40964 10.6252 5.62044C9.83836 5.83125 9.1105 6.2202 8.49794 6.7572C7.88538 7.29421 7.40452 7.9649 7.09254 8.71741C6.78056 9.46993 6.64581 10.2841 6.69872 11.097C6.75162 11.9099 6.99077 12.6998 7.39766 13.4055C7.5125 13.6201 7.5394 13.8709 7.47268 14.1049C7.40595 14.339 7.25083 14.5379 7.0401 14.6596C6.82937 14.7814 6.57956 14.8164 6.34347 14.7573C6.10738 14.6982 5.90353 14.5496 5.775 14.343C5.22392 13.3882 4.89984 12.3195 4.82785 11.2194C4.75585 10.1194 4.93786 9.01749 5.3598 7.99903C5.78174 6.98057 6.43229 6.07281 7.26115 5.34598C8.09001 4.61914 9.07495 4.09271 10.1398 3.80739C11.2046 3.52208 12.3208 3.48553 13.4021 3.70058C14.4833 3.91562 15.5006 4.3765 16.3752 5.04756C17.2498 5.71862 17.9584 6.58187 18.446 7.57055C18.9337 8.55923 19.1874 9.64683 19.1875 10.7492Z" fill="#1C3557"/>
</svg>
