<svg width="65" height="65" viewBox="0 0 65 65" fill="none" xmlns="http://www.w3.org/2000/svg">
<circle cx="32.5" cy="32.5" r="20.5" fill="white"/>
<path d="M28.6364 41C28.4676 41 28.3057 40.9298 28.1864 40.8047C28.067 40.6797 28 40.5101 28 40.3333V25.6666C28 25.5507 28.0289 25.4369 28.0837 25.3362C28.1385 25.2356 28.2174 25.1517 28.3126 25.0928C28.4078 25.0338 28.516 25.0019 28.6265 25.0001C28.7371 24.9983 28.8462 25.0267 28.9431 25.0826L41.6706 32.4159C41.7703 32.4735 41.8535 32.558 41.9115 32.6608C41.9694 32.7635 42 32.8806 42 32.9999C42 33.1193 41.9694 33.2364 41.9115 33.3391C41.8535 33.4418 41.7703 33.5264 41.6706 33.5839L28.9431 40.9173C28.8491 40.9715 28.7436 41 28.6364 41Z" fill="#FEB634"/>
<circle cx="32.5" cy="32.5" r="32" stroke="white"/>
<circle cx="59" cy="15" r="4" fill="white"/>
</svg>
