<svg width="10" height="10" viewBox="0 0 10 10" fill="none" xmlns="http://www.w3.org/2000/svg">
<path d="M7.29622 1.59046L1.25249 1.59046C1.02717 1.59046 0.838172 1.51412 0.685488 1.36143C0.532803 1.20875 0.456727 1.02002 0.457257 0.795232C0.457257 0.569918 0.533599 0.380918 0.686283 0.228235C0.838967 0.0755507 1.0277 -0.00052628 1.25249 3.844e-06L9.20477 2.85096e-06C9.43008 2.82282e-06 9.61908 0.0763448 9.77177 0.229029C9.92445 0.381712 10.0005 0.570447 10 0.795231L10 8.74751C10 8.97283 9.92365 9.16183 9.77097 9.31451C9.61829 9.4672 9.42955 9.54327 9.20477 9.54274C8.97945 9.54274 8.79045 9.4664 8.63777 9.31372C8.48509 9.16103 8.40901 8.9723 8.40954 8.74751L8.40954 2.70378L1.33201 9.78131C1.18622 9.92711 1.00066 10 0.775347 10C0.550032 10 0.364481 9.92711 0.218689 9.78131C0.0728965 9.63552 -4.13071e-07 9.44997 -4.03222e-07 9.22465C-3.93374e-07 8.99934 0.0728966 8.81378 0.218689 8.66799L7.29622 1.59046Z" fill="#1C3557"/>
</svg>
