<svg width="14" height="14" viewBox="0 0 14 14" fill="none" xmlns="http://www.w3.org/2000/svg">
<circle cx="7" cy="7" r="6.5" stroke="#1C3557"/>
<path d="M6.02122 8.33358C6.02122 7.87812 6.10708 7.49732 6.27882 7.19118C6.45055 6.88505 6.74175 6.59012 7.15242 6.30638C7.45108 6.09732 7.67508 5.93305 7.82442 5.81358C7.97375 5.68665 8.08948 5.54852 8.17162 5.39918C8.26122 5.24238 8.30602 5.05945 8.30602 4.85038C8.30602 4.51438 8.17162 4.24931 7.90282 4.05518C7.63402 3.86105 7.24575 3.76398 6.73802 3.76398C5.99135 3.76398 5.30068 3.91332 4.66602 4.21198V3.22638C4.96468 3.09945 5.28948 2.99865 5.64042 2.92398C5.99882 2.84185 6.36468 2.80078 6.73802 2.80078C7.55935 2.80078 8.21268 2.98371 8.69802 3.34958C9.18335 3.71545 9.42602 4.21571 9.42602 4.85038C9.42602 5.23865 9.32522 5.57091 9.12362 5.84718C8.92202 6.12345 8.60468 6.41838 8.17162 6.73198C7.85802 6.95598 7.63402 7.13518 7.49962 7.26958C7.36522 7.39652 7.26815 7.54212 7.20842 7.70638C7.14868 7.86318 7.11882 8.07598 7.11882 8.34478V8.56878H6.02122V8.33358ZM6.55882 10.9656C6.37215 10.9656 6.21535 10.9021 6.08842 10.7752C5.96148 10.6482 5.89802 10.4914 5.89802 10.3048C5.89802 10.1181 5.96148 9.96132 6.08842 9.83438C6.21535 9.70745 6.37215 9.64398 6.55882 9.64398C6.74548 9.64398 6.90228 9.70745 7.02922 9.83438C7.16362 9.96132 7.23082 10.1181 7.23082 10.3048C7.23082 10.4914 7.16362 10.6482 7.02922 10.7752C6.90228 10.9021 6.74548 10.9656 6.55882 10.9656Z" fill="#1C3557"/>
</svg>
