<svg width="21" height="21" viewBox="0 0 21 21" fill="none" xmlns="http://www.w3.org/2000/svg">
<path d="M11.9428 18.1481C9.69142 18.1481 7.5953 17.3184 6.01662 15.9185L1.12559 20.8184C0.996157 20.9481 0.840912 21 0.659864 21C0.478628 21 0.323389 20.9481 0.194143 20.8184C-0.0647163 20.5591 -0.0647163 20.1444 0.194143 19.9109L5.1106 15.011C3.73904 13.4295 2.88505 11.3554 2.88505 9.074C2.88505 4.07034 6.94806 0 11.9425 0C16.937 0 21 4.07043 21 9.074C21 14.0776 16.9374 18.1481 11.9428 18.1481ZM11.9428 1.29638C7.67294 1.29638 4.17925 4.79644 4.17925 9.07409C4.17925 13.3517 7.67294 16.8518 11.9428 16.8518C16.2127 16.8518 19.7064 13.3517 19.7064 9.07409C19.7064 4.79644 16.2128 1.29638 11.9428 1.29638Z" fill="white"/>
</svg>
