<svg width="22" height="22" viewBox="0 0 22 22" fill="none" xmlns="http://www.w3.org/2000/svg">
<path d="M5.64339 11.3779L10.3931 16.1276C10.5702 16.3047 10.6588 16.5132 10.6588 16.7532C10.6588 16.9932 10.5702 17.2013 10.3931 17.3776C10.2161 17.5547 10.0075 17.6432 9.76755 17.6432C9.52756 17.6432 9.31945 17.5547 9.14321 17.3776L2.89353 11.1279C2.71645 10.9508 2.62792 10.7423 2.62792 10.5023C2.62792 10.2623 2.71645 10.0542 2.89353 9.87796L9.14321 3.62828C9.32028 3.45121 9.52881 3.36267 9.7688 3.36267C10.0088 3.36267 10.2169 3.45121 10.3931 3.62828C10.5702 3.80535 10.6588 4.01389 10.6588 4.25387C10.6588 4.49386 10.5702 4.70198 10.3931 4.87822L5.64339 9.62797H16.7678C16.997 9.62797 17.2001 9.71651 17.3772 9.89359C17.5542 10.0707 17.6428 10.2738 17.6428 10.5029C17.6428 10.7321 17.5542 10.9352 17.3772 11.1123C17.2001 11.2893 16.997 11.3779 16.7678 11.3779H5.64339Z" fill="#1C3557"/>
</svg>
