<svg width="14" height="13" viewBox="0 0 14 13" fill="none" xmlns="http://www.w3.org/2000/svg">
<path d="M6.41257 0.927311C6.71192 0.00600082 8.01533 0.0060001 8.31468 0.927311L9.15974 3.52812C9.29361 3.94015 9.67757 4.21911 10.1108 4.21911H12.8454C13.8142 4.21911 14.2169 5.45872 13.4332 6.02812L11.2209 7.63551C10.8704 7.89016 10.7237 8.34153 10.8576 8.75355L11.7026 11.3544C12.002 12.2757 10.9475 13.0418 10.1638 12.4724L7.95141 10.865C7.60092 10.6104 7.12633 10.6104 6.77584 10.865L4.56345 12.4724C3.77974 13.0418 2.72526 12.2757 3.02461 11.3544L3.86967 8.75355C4.00354 8.34153 3.85688 7.89016 3.5064 7.63551L1.29401 6.02812C0.510301 5.45872 0.913076 4.21911 1.8818 4.21911H4.61645C5.04968 4.21911 5.43364 3.94015 5.56751 3.52812L6.41257 0.927311Z" fill="#FEB634"/>
</svg>
