<svg width="14" height="13" viewBox="0 0 14 13" fill="none" xmlns="http://www.w3.org/2000/svg">
<path d="M5.86765 0.927311C6.167 0.00600082 7.47041 0.0060001 7.76976 0.927311L8.61481 3.52812C8.74869 3.94015 9.13264 4.21911 9.56587 4.21911H12.3005C13.2692 4.21911 13.672 5.45872 12.8883 6.02812L10.6759 7.63551C10.3254 7.89016 10.1788 8.34153 10.3127 8.75355L11.1577 11.3544C11.4571 12.2757 10.4026 13.0418 9.61887 12.4724L7.40649 10.865C7.056 10.6104 6.5814 10.6104 6.23092 10.865L4.01853 12.4724C3.23482 13.0418 2.18034 12.2757 2.47969 11.3544L3.32475 8.75355C3.45862 8.34153 3.31196 7.89016 2.96147 7.63551L0.749093 6.02812C-0.034621 5.45872 0.368154 4.21911 1.33688 4.21911H4.07153C4.50476 4.21911 4.88872 3.94015 5.02259 3.52812L5.86765 0.927311Z" fill="#D9D9D9"/>
</svg>
